<?xml version="1.0" encoding="utf-8"?>
<!-- Generator: Adobe Illustrator 16.0.0, SVG Export Plug-In . SVG Version: 6.00 Build 0)  -->
<!DOCTYPE svg PUBLIC "-//W3C//DTD SVG 1.1//EN" "http://www.w3.org/Graphics/SVG/1.1/DTD/svg11.dtd">
<svg version="1.1" id="Layer_1" xmlns="http://www.w3.org/2000/svg" xmlns:xlink="http://www.w3.org/1999/xlink" x="0px" y="0px"
	 width="100px" height="100px" viewBox="0 0 100 100" enable-background="new 0 0 100 100" xml:space="preserve">
<path fill="#FFFFFF" d="M96.363,34.302l0.029-0.02L82.441,7.717l0.303-0.069c1.26-0.299,2.158-1.518,2.158-2.927V3.364
	c0-1.905-1.61-3.326-3.315-2.924L17.253,15.601c-1.261,0.298-2.159,1.517-2.159,2.925v1.358c0,1.849,1.517,3.226,3.165,2.939
	L3.603,50.732l0.03,0.021H0.25c0,9.49,9.149,17.185,20.436,17.185c11.286,0,20.436-7.696,20.436-17.185h-2.903l0.032-0.021
	L23.015,21.721l23.564-5.552v77.163c-11.443,0.966-14.213,6.542-14.213,6.542h35.34c0,0-2.781-5.599-14.282-6.55V14.557
	l21.327-5.026L61.753,34.284l0.028,0.02h-2.902c0,9.491,9.146,17.182,20.436,17.182c11.285,0,20.437-7.69,20.437-17.184
	L96.363,34.302L96.363,34.302z M8.328,50.752l12.597-23.991l12.598,23.991H8.328z M66.475,34.302L79.07,10.311l12.599,23.992
	L66.475,34.302L66.475,34.302z"/>
</svg>
