<?xml version="1.0" encoding="utf-8"?>
<!-- Generator: Adobe Illustrator 17.0.0, SVG Export Plug-In . SVG Version: 6.00 Build 0)  -->
<!DOCTYPE svg PUBLIC "-//W3C//DTD SVG 1.1//EN" "http://www.w3.org/Graphics/SVG/1.1/DTD/svg11.dtd">
<svg version="1.1" id="Layer_1" xmlns="http://www.w3.org/2000/svg" xmlns:xlink="http://www.w3.org/1999/xlink" x="0px" y="0px"
	 width="100px" height="100px" viewBox="0 0 100 100" enable-background="new 0 0 100 100" xml:space="preserve">
<g id="Enlightened_One">
	<g>
		<polygon fill="#FFFFFF" points="40.846,24.391 29.999,11.995 36.379,27.764 		"/>
		<polygon fill="#FFFFFF" points="32.004,32.549 13.227,26.123 29.999,38.975 		"/>
		<polygon fill="#FFFFFF" points="28.358,45.356 12.589,50.551 28.358,51.371 		"/>
		<path fill="#FFFFFF" d="M50.872,26.123c0,0-14.948,3.464-15.678,16.225s5.834,24.063,15.678,26.798
			c9.844-2.734,16.407-14.037,15.678-26.798S50.872,26.123,50.872,26.123z"/>
		<path fill="#FFFFFF" d="M68.008,60.577C59.44,75.526,50.872,74.25,50.872,74.25s-8.568,1.276-17.136-13.672
			c-16.528,3.585-14.948,34.819-14.948,34.819h32.085h32.085C82.957,95.397,84.536,64.163,68.008,60.577z"/>
		<polygon fill="#FFFFFF" points="54.396,23.51 50.872,6.313 47.348,23.51 50.872,22.234 		"/>
		<polygon fill="#FFFFFF" points="71.745,11.995 60.898,24.391 65.365,27.764 		"/>
		<polygon fill="#FFFFFF" points="71.745,38.975 88.517,26.123 69.74,32.549 		"/>
		<polygon fill="#FFFFFF" points="73.386,51.371 89.155,50.551 73.386,45.356 		"/>
	</g>
</g>
</svg>
