<?xml version="1.0" encoding="utf-8"?>
<!-- Generator: Adobe Illustrator 16.0.0, SVG Export Plug-In . SVG Version: 6.00 Build 0)  -->
<!DOCTYPE svg PUBLIC "-//W3C//DTD SVG 1.1//EN" "http://www.w3.org/Graphics/SVG/1.1/DTD/svg11.dtd">
<svg version="1.1" id="Layer_1" xmlns="http://www.w3.org/2000/svg" xmlns:xlink="http://www.w3.org/1999/xlink" x="0px" y="0px"
	 width="446px" height="446px" viewBox="0 0 446 446" enable-background="new 0 0 446 446" xml:space="preserve">
<path fill="#FFFFFF" d="M318.366,280.211h-20.349l-7.627-7.627c25.422-27.964,40.688-66.111,40.688-106.801
	C331.078,74.241,257.331,0.5,165.789,0.5C74.241,0.5,0.5,74.241,0.5,165.783c0,91.548,73.741,165.295,165.283,165.295
	c40.684,0,78.826-15.266,106.801-40.688l7.627,7.627v20.338L407.366,445.5l38.134-38.145L318.366,280.211z M165.783,280.211
	c-63.572,0-114.43-50.855-114.43-114.428c0-63.566,50.858-114.425,114.43-114.425s114.428,50.864,114.428,114.425
	C280.211,229.355,229.366,280.211,165.783,280.211z"/>
</svg>
