<?xml version="1.0" encoding="utf-8"?>
<!-- Generator: Adobe Illustrator 17.0.0, SVG Export Plug-In . SVG Version: 6.00 Build 0)  -->
<!DOCTYPE svg PUBLIC "-//W3C//DTD SVG 1.1//EN" "http://www.w3.org/Graphics/SVG/1.1/DTD/svg11.dtd">
<svg version="1.1" id="Layer_1" xmlns="http://www.w3.org/2000/svg" xmlns:xlink="http://www.w3.org/1999/xlink" x="0px" y="0px"
	 width="100px" height="100px" viewBox="0 0 100 100" enable-background="new 0 0 100 100" xml:space="preserve">
<path fill="#FFFFFF" d="M70.325,62.193h-4.337l-1.626-1.626c5.418-5.96,8.672-14.09,8.672-22.762
	c0-19.51-15.717-35.226-35.227-35.226c-19.511,0-35.227,15.716-35.227,35.226c0,19.511,15.716,35.229,35.226,35.229
	c8.671,0,16.8-3.254,22.762-8.672l1.626,1.626v4.335l27.1,27.098l8.127-8.13L70.325,62.193z M37.806,62.193
	c-13.549,0-24.388-10.839-24.388-24.388c0-13.548,10.839-24.387,24.388-24.387s24.388,10.84,24.388,24.387
	C62.193,51.354,51.357,62.193,37.806,62.193z"/>
</svg>
