<?xml version="1.0" encoding="utf-8"?>
<!-- Generator: Adobe Illustrator 17.0.0, SVG Export Plug-In . SVG Version: 6.00 Build 0)  -->
<!DOCTYPE svg PUBLIC "-//W3C//DTD SVG 1.1//EN" "http://www.w3.org/Graphics/SVG/1.1/DTD/svg11.dtd">
<svg version="1.1" id="Layer_1" xmlns="http://www.w3.org/2000/svg" xmlns:xlink="http://www.w3.org/1999/xlink" x="0px" y="0px"
	 width="48px" height="48px" viewBox="0 0 48 48" enable-background="new 0 0 48 48" xml:space="preserve">
<path fill="#FBAF40" d="M48,43c0,2.761-2.239,5-5,5H5c-2.761,0-5-2.239-5-5V5c0-2.761,2.239-5,5-5h38c2.761,0,5,2.239,5,5V43z"/>
<g id="Layer_2">
	<path fill="#F58120" d="M15.937,40.292L31.083,48H43.5c0,0,4.5-0.667,4.5-5s0-16.667,0-16.667v-1.75L36.979,11.279"/>
</g>
<circle fill="#FFFFFF" cx="24" cy="24" r="18.176"/>
<path fill="#3B97D3" d="M39.733,33.171l-1.601,2.324c0,0-4.209-2.576-12.607-2.576c-6.841,0-12.4-6.816-12.84-7.431
	c-0.44-0.616-3.528-6.062-3.562-6.992c-0.034-0.93,1.011,4.793,10.422,6.728c2.608,0.536,4.177,1.076,7.33,1.076
	c6.118,0,8.457,2.09,11.491,5.125C40.213,33.273,39.733,33.171,39.733,33.171z"/>
<path fill="#E37D25" d="M9.355,13.234c0,0,4.962,4.624,17.167,4.624c9.907,0,11.776,10.428,12.128,11.132
	c0.352,0.704-5.686-4.339-11.315-4.808s-10.663-1.282-14.181-3.744s-5.042-4.339-5.277-4.69C7.643,15.396,9.355,13.234,9.355,13.234
	z"/>
</svg>
