<?xml version="1.0" encoding="utf-8"?>
<!-- Generator: Adobe Illustrator 17.0.0, SVG Export Plug-In . SVG Version: 6.00 Build 0)  -->
<!DOCTYPE svg PUBLIC "-//W3C//DTD SVG 1.1//EN" "http://www.w3.org/Graphics/SVG/1.1/DTD/svg11.dtd">
<svg version="1.1" id="Layer_1" xmlns="http://www.w3.org/2000/svg" xmlns:xlink="http://www.w3.org/1999/xlink" x="0px" y="0px"
	 width="100px" height="100px" viewBox="0 0 100 100" enable-background="new 0 0 100 100" xml:space="preserve">
<path fill="#FBAF40" d="M98.9,88.712c0,5.626-4.561,10.187-10.187,10.187H11.288C5.661,98.9,1.1,94.339,1.1,88.712V11.288
	C1.1,5.661,5.661,1.1,11.288,1.1h77.425C94.339,1.1,98.9,5.661,98.9,11.288V88.712z"/>
<path fill="#F58120" d="M33.572,83.195L64.432,98.9h25.299c0,0,9.169-1.358,9.169-10.187s0-33.958,0-33.958v-3.566L76.444,24.08"/>
<circle fill="#FFFFFF" cx="50" cy="50" r="37.032"/>
<path fill="#3B97D3" d="M82.055,68.685l-3.262,4.734c0,0-8.575-5.248-25.687-5.248c-13.938,0-25.266-13.887-26.162-15.141
	c-0.896-1.254-7.188-12.351-7.257-14.246c-0.069-1.895,2.061,9.766,21.234,13.708c5.313,1.092,8.511,2.191,14.934,2.191
	c12.466,0,17.23,4.259,23.413,10.441C83.035,68.893,82.055,68.685,82.055,68.685z"/>
<path fill="#E37D25" d="M20.161,28.065c0,0,10.11,9.422,34.978,9.422c20.186,0,23.993,21.248,24.71,22.681
	s-11.585-8.84-23.053-9.796c-11.468-0.956-21.726-2.612-28.893-7.629s-10.274-8.84-10.751-9.557
	C16.673,32.469,20.161,28.065,20.161,28.065z"/>
</svg>
