<?xml version="1.0" encoding="utf-8"?>
<!-- Generator: Adobe Illustrator 16.0.0, SVG Export Plug-In . SVG Version: 6.00 Build 0)  -->
<!DOCTYPE svg PUBLIC "-//W3C//DTD SVG 1.1//EN" "http://www.w3.org/Graphics/SVG/1.1/DTD/svg11.dtd">
<svg version="1.1" id="Layer_1" xmlns="http://www.w3.org/2000/svg" xmlns:xlink="http://www.w3.org/1999/xlink" x="0px" y="0px"
	 width="100px" height="100px" viewBox="0 0 100 100" enable-background="new 0 0 100 100" xml:space="preserve">
<path fill="#9B58A8" d="M3.322,95.711"/>
<path fill="#9B58A8" d="M16.381,76.977c0.205-1.285,0.768-2.383,1.646-3.236c0.768-0.977,1.748-1.631,2.963-1.891
	c2.188-0.474,3.949,0.305,5.377,1.891c1.482,1.65,2.078,3.537,1.59,5.859c-0.281,1.34-0.768,2.441-1.59,3.356
	c-0.823,0.913-1.82,1.476-3.019,1.771c-2.041,0.5-3.757-0.094-5.323-1.771C16.574,81.396,15.983,79.475,16.381,76.977z"/>
<path fill="#FFFFFF" d="M13.638,48.229c0.289,1.758,1.909,2.998,3.511,2.625c8.384-1.945,16.83,0.931,22.935,7.629
	c6.02,6.607,8.546,16.05,6.858,25.328c-0.233,1.279,0.055,2.381,0.768,3.174c0.548,0.429,1.097,0.73,1.59,0.854
	c1.7,0.426,3.241-0.74,3.566-2.623c0.993-5.75,0.768-11.415-0.712-16.967c-1.482-5.553-4.115-10.438-7.792-14.527
	c-3.731-4.147-8.131-7.041-13.169-8.728c-5.003-1.671-10.085-1.892-15.198-0.792C14.306,44.564,13.323,46.322,13.638,48.229z"/>
<path fill="#FFFFFF" d="M10.4,75.693c-0.857,4.385,0.479,8.863,3.347,12.021c2.84,3.13,6.797,4.479,10.808,3.603
	c4.658-1.018,8.376-5.205,9.328-10.377c0.857-4.655-0.166-8.666-3.238-12.084c-2.797-3.112-6.855-4.438-10.808-3.66
	c-2.247,0.443-4.333,1.586-6.2,3.66C11.989,70.688,10.914,73.063,10.4,75.693z"/>
<path fill="#FFFFFF" d="M10.071,28.455c0.327,1.882,1.852,2.981,3.457,2.625c7.175-1.596,14.263-1.151,21.178,1.161
	c6.966,2.326,12.948,6.284,18.052,11.962c5.158,5.736,8.771,12.451,10.864,20.199c2.077,7.692,2.414,15.504,0.933,23.436
	c-0.109,1.282,0.221,2.319,0.934,3.113c0.656,0.549,1.152,0.855,1.535,0.917c1.592,0.426,3.187-0.752,3.513-2.625
	c1.594-9.116,1.31-18.004-1.042-26.794c-2.367-8.846-6.477-16.477-12.348-23.008C51.275,32.91,44.36,28.404,36.46,25.771
	c-7.849-2.616-15.848-3.002-24.032-1.281C10.738,24.844,9.74,26.55,10.071,28.455z"/>
<path fill="#FFFFFF" d="M6.56,9.841c0.235,1.775,2.018,2.995,3.621,2.623c10.029-2.314,19.863-1.708,29.518,1.526
	c9.657,3.235,18.039,8.863,25.185,16.845c7.117,7.948,12.173,17.274,15.089,28.073c2.898,10.744,3.393,21.603,1.426,32.654
	c-0.229,1.276,0.056,2.316,0.822,3.17c0.604,0.492,1.1,0.795,1.537,0.854c1.7,0.429,3.29-0.743,3.622-2.623
	c2.138-12.157,1.698-24.17-1.536-36.008c-3.238-11.842-8.767-22.17-16.68-31.004C61.331,17.209,52.038,11.089,41.4,7.521
	C30.749,3.947,19.957,3.433,9.027,5.812C7.339,6.181,6.302,7.893,6.56,9.841z"/>
<path fill="#9B58A8" d="M94.678,95.711"/>
</svg>
