<?xml version="1.0" encoding="utf-8"?>
<!-- Generator: Adobe Illustrator 16.0.0, SVG Export Plug-In . SVG Version: 6.00 Build 0)  -->
<!DOCTYPE svg PUBLIC "-//W3C//DTD SVG 1.1//EN" "http://www.w3.org/Graphics/SVG/1.1/DTD/svg11.dtd">
<svg version="1.1" id="Layer_1" xmlns="http://www.w3.org/2000/svg" xmlns:xlink="http://www.w3.org/1999/xlink" x="0px" y="0px"
	 width="100px" height="100px" viewBox="0 0 100 100" enable-background="new 0 0 100 100" xml:space="preserve">
<path fill="#FFFFFF" d="M12.327,53.395H2.334c0.759,10.508,4.885,20.067,11.347,27.612l7.143-7.129l4.925,4.929l-7.152,7.139
	c7.522,6.572,17.116,10.836,27.691,11.682V87.282h6.972v10.384c10.688-0.684,20.415-4.818,28.068-11.342l-7.532-7.518l4.933-4.925
	l7.545,7.531c6.668-7.606,10.949-17.318,11.723-28.027H87.219V46.43H98C96.201,21.606,75.51,2,50.176,2
	C24.838,2,4.136,21.606,2.339,46.431h9.995v6.963H12.327L12.327,53.395z M49.776,21.1c5.106,0,9.248,4.125,9.248,9.236
	c0,3.766-2.278,7.009-5.537,8.438l-3.472,32.067l-0.856-0.01L45.999,38.76c-3.228-1.456-5.481-4.661-5.481-8.424
	C40.518,25.225,44.663,21.1,49.776,21.1z"/>
</svg>
