<?xml version="1.0" encoding="utf-8"?>
<!-- Generator: Adobe Illustrator 17.0.0, SVG Export Plug-In . SVG Version: 6.00 Build 0)  -->
<!DOCTYPE svg PUBLIC "-//W3C//DTD SVG 1.1//EN" "http://www.w3.org/Graphics/SVG/1.1/DTD/svg11.dtd">
<svg version="1.1" id="Layer_1" xmlns="http://www.w3.org/2000/svg" xmlns:xlink="http://www.w3.org/1999/xlink" x="0px" y="0px"
	 width="48px" height="48px" viewBox="0 0 48 48" enable-background="new 0 0 48 48" xml:space="preserve">
<g id="Layer_1_1_">
	<circle fill="#E57D21" cx="23.999" cy="24.001" r="23.802"/>
	<g id="Layer_2">
	</g>
	<g>
		<path fill="#FFFFFF" d="M40.101,22.889h-4.35v-4.348c0-0.331-0.269-0.601-0.602-0.601h-1.237c-0.333,0-0.601,0.27-0.601,0.601
			v4.348H28.96c-0.331,0-0.601,0.271-0.601,0.603v1.239c0,0.33,0.27,0.602,0.601,0.602h4.351v4.349c0,0.333,0.268,0.6,0.601,0.6
			h1.237c0.333,0,0.602-0.267,0.602-0.6V25.33h4.35c0.332,0,0.602-0.269,0.602-0.602v-1.237
			C40.702,23.159,40.433,22.889,40.101,22.889z"/>
		<path fill="#FFFFFF" d="M25.486,26.702c-0.915-0.648-1.746-1.598-1.76-1.892c0-0.53,0.048-0.784,1.24-1.713
			c1.54-1.206,2.391-2.792,2.391-4.468c0-1.52-0.466-2.869-1.256-3.817h0.612c0.128,0,0.253-0.04,0.354-0.113l1.711-1.239
			c0.212-0.153,0.302-0.425,0.221-0.672c-0.083-0.248-0.311-0.417-0.573-0.417h-7.65c-0.837,0-1.688,0.147-2.522,0.435
			c-2.789,0.96-4.738,3.336-4.738,5.776c0,3.456,2.677,6.074,6.255,6.155c-0.07,0.274-0.105,0.546-0.105,0.81
			c0,0.532,0.135,1.036,0.412,1.523c-0.032,0-0.063,0-0.098,0c-3.412,0-6.49,1.676-7.659,4.165
			c-0.304,0.646-0.458,1.303-0.458,1.948c0,0.63,0.16,1.234,0.478,1.804c0.733,1.313,2.312,2.334,4.443,2.872
			c1.102,0.277,2.284,0.42,3.512,0.42c1.103,0,2.155-0.143,3.127-0.425c3.032-0.88,4.994-3.112,4.994-5.689
			C28.416,29.692,27.62,28.211,25.486,26.702z M15.823,32.361c0-1.798,2.285-3.377,4.891-3.377h0.069
			c0.566,0.009,1.12,0.091,1.642,0.251c0.178,0.123,0.35,0.242,0.516,0.354c1.207,0.823,2.005,1.364,2.227,2.235
			c0.052,0.22,0.077,0.438,0.077,0.652c0,2.239-1.669,3.374-4.965,3.374C17.78,35.851,15.823,34.318,15.823,32.361z M18.194,15.367
			c0.407-0.465,0.941-0.711,1.54-0.711l0.067,0.001c1.691,0.05,3.309,1.935,3.606,4.201c0.168,1.269-0.115,2.462-0.753,3.189
			c-0.409,0.466-0.934,0.711-1.556,0.711c0,0,0,0-0.002,0h-0.028c-1.656-0.05-3.309-2.007-3.604-4.271
			C17.297,17.223,17.564,16.085,18.194,15.367z"/>
	</g>
</g>
<g id="Layer_3" display="none">
	<path display="inline" fill="#FFFFFF" d="M26.356,19.718v-3.302c0-1.241,0.822-1.529,1.401-1.529c0.578,0,3.554,0,3.554,0V9.434
		l-4.894-0.019c-5.433,0-6.669,4.066-6.669,6.668v3.634h-3.141v5.619h3.141c0,7.209,0,15.896,0,15.896h6.607c0,0,0-8.773,0-15.896
		h4.46l0.576-5.619L26.356,19.718L26.356,19.718z"/>
</g>
</svg>
