<?xml version="1.0" encoding="utf-8"?>
<!-- Generator: Adobe Illustrator 16.0.0, SVG Export Plug-In . SVG Version: 6.00 Build 0)  -->
<!DOCTYPE svg PUBLIC "-//W3C//DTD SVG 1.1//EN" "http://www.w3.org/Graphics/SVG/1.1/DTD/svg11.dtd">
<svg version="1.1" xmlns="http://www.w3.org/2000/svg" xmlns:xlink="http://www.w3.org/1999/xlink" x="0px" y="0px" width="48px"
	 height="48px" viewBox="0 0 48 48" enable-background="new 0 0 48 48" xml:space="preserve">
<g id="Layer_1">
	<circle fill="#304F6C" cx="23.999" cy="24.001" r="23.802"/>
	<g id="Layer_2" display="none">
	</g>
</g>
<g id="Layer_3">
	<g display="none">
		<path display="inline" fill="#FFFFFF" d="M40.101,22.889h-4.35v-4.348c0-0.331-0.269-0.601-0.602-0.601h-1.237
			c-0.333,0-0.601,0.27-0.601,0.601v4.348h-4.351c-0.331,0-0.601,0.271-0.601,0.603v1.239c0,0.33,0.27,0.602,0.601,0.602h4.351
			v4.349c0,0.333,0.268,0.6,0.601,0.6h1.237c0.333,0,0.602-0.267,0.602-0.6V25.33h4.35c0.332,0,0.602-0.269,0.602-0.602v-1.237
			C40.702,23.159,40.433,22.889,40.101,22.889z"/>
		<path display="inline" fill="#FFFFFF" d="M25.486,26.702c-0.915-0.648-1.746-1.598-1.76-1.892c0-0.53,0.048-0.784,1.24-1.713
			c1.54-1.206,2.391-2.792,2.391-4.468c0-1.52-0.466-2.869-1.256-3.817h0.612c0.128,0,0.253-0.04,0.354-0.113l1.711-1.239
			c0.212-0.153,0.302-0.425,0.221-0.672c-0.083-0.248-0.311-0.417-0.573-0.417h-7.65c-0.837,0-1.688,0.147-2.522,0.435
			c-2.789,0.96-4.738,3.336-4.738,5.776c0,3.456,2.677,6.074,6.255,6.155c-0.07,0.274-0.105,0.546-0.105,0.81
			c0,0.532,0.135,1.036,0.412,1.523c-0.032,0-0.063,0-0.098,0c-3.412,0-6.49,1.676-7.659,4.165
			c-0.304,0.646-0.458,1.303-0.458,1.948c0,0.63,0.16,1.234,0.478,1.804c0.733,1.313,2.312,2.334,4.443,2.872
			c1.102,0.277,2.284,0.42,3.512,0.42c1.103,0,2.155-0.143,3.127-0.425c3.032-0.88,4.994-3.112,4.994-5.689
			C28.416,29.692,27.62,28.211,25.486,26.702z M15.823,32.361c0-1.798,2.285-3.377,4.891-3.377h0.069
			c0.566,0.009,1.12,0.091,1.642,0.251c0.178,0.123,0.35,0.242,0.516,0.354c1.207,0.823,2.005,1.364,2.227,2.235
			c0.052,0.22,0.077,0.438,0.077,0.652c0,2.239-1.669,3.374-4.965,3.374C17.78,35.851,15.823,34.318,15.823,32.361z M18.194,15.367
			c0.407-0.465,0.941-0.711,1.54-0.711l0.067,0.001c1.691,0.05,3.309,1.935,3.606,4.201c0.168,1.269-0.115,2.462-0.753,3.189
			c-0.409,0.466-0.934,0.711-1.556,0.711c0,0,0,0-0.002,0h-0.028c-1.656-0.05-3.309-2.007-3.604-4.271
			C17.297,17.223,17.564,16.085,18.194,15.367z"/>
	</g>
	<path display="none" fill="#FFFFFF" d="M26.356,19.718v-3.302c0-1.241,0.822-1.529,1.401-1.529c0.578,0,3.554,0,3.554,0V9.434
		l-4.894-0.019c-5.433,0-6.669,4.066-6.669,6.668v3.634h-3.141v5.619h3.141c0,7.209,0,15.896,0,15.896h6.607c0,0,0-8.773,0-15.896
		h4.46l0.576-5.619H26.356z"/>
	<g id="layer1" transform="translate(0,-552.36218)" display="none">
		<g id="layer1-9" transform="translate(-1068,-236)" display="inline">
			<path id="rect2995-4" fill="#FFFFFF" d="M1081.613,800.703c-1.438,0-2.596,1.158-2.596,2.597v20.772
				c0,1.438,1.158,2.598,2.596,2.598h20.772c1.438,0,2.597-1.159,2.597-2.598v-20.772c0-1.438-1.158-2.597-2.597-2.597H1081.613z
				 M1086.283,806.196c0.996,0,1.802,0.807,1.802,1.803c0,0.996-0.806,1.804-1.802,1.804c-0.997,0-1.803-0.809-1.803-1.804
				C1084.48,807.003,1085.287,806.196,1086.283,806.196z M1095.728,810.892c0.204,0.001,0.412,0.01,0.69,0.028
				c1.361,0.084,2.876,1.146,2.921,3.638c0.037,2.051,0.026,5.302,0.026,6.498h-3.092c0-1.226,0.013-3.753,0.013-5.542
				c0-0.814-0.365-1.91-1.667-1.91c-1.434,0-1.781,1.332-1.781,1.91c0,1.717-0.015,4.452-0.015,5.542h-3.074
				c0-1.837,0.02-8.136,0.02-9.915c1.587,0,2.346-0.003,2.928-0.003c0,0.582-0.006,0.973-0.006,1.398
				c0.486-0.98,1.81-1.593,2.377-1.622C1095.325,810.899,1095.524,810.891,1095.728,810.892z M1084.74,811.18h3.081v9.871h-3.081
				V811.18z"/>
		</g>
	</g>
	<path display="none" fill="#FFFFFF" d="M39.131,16.236c-1.039,0.462-2.157,0.773-3.33,0.913c1.197-0.717,2.116-1.853,2.55-3.208
		c-1.121,0.665-2.361,1.147-3.683,1.408c-1.058-1.127-2.564-1.832-4.232-1.832c-3.201,0-5.798,2.596-5.798,5.798
		c0,0.454,0.052,0.896,0.15,1.321c-4.819-0.242-9.092-2.55-11.952-6.059c-0.5,0.856-0.785,1.852-0.785,2.916
		c0,2.012,1.023,3.787,2.579,4.826c-0.95-0.03-1.844-0.292-2.626-0.726c0,0.024,0,0.049,0,0.073c0,2.81,1.999,5.153,4.651,5.686
		c-0.486,0.131-0.999,0.203-1.528,0.203c-0.374,0-0.737-0.037-1.091-0.105c0.738,2.305,2.879,3.98,5.416,4.027
		c-1.984,1.557-4.484,2.482-7.201,2.482c-0.468,0-0.93-0.027-1.383-0.082c2.566,1.646,5.614,2.605,8.889,2.605
		c10.666,0,16.498-8.834,16.498-16.497c0-0.251-0.006-0.502-0.017-0.751C37.371,18.42,38.354,17.398,39.131,16.236z"/>
	<g>
		<path fill="#FFFFFF" d="M19.094,33.704c0-5.349,0-11.924,0-11.924H15.64v-4.347c0,0,5.574-0.557,5.574-7.469
			c2.867,0,3.806,0,4.011,0v7.027h7.015v4.124h-7.015v10.36c0,0,2.9,4.794,7.134,0.558c0,2.302,0,3.727,0,4.572
			C32.358,36.605,21.659,41.288,19.094,33.704z"/>
	</g>
</g>
<g id="Layer_4">
</g>
</svg>
